# xmcd
#
# Track frame offsets:
# 150
# 17232
# 31527
# 41481
# 50247
# 63124
# 74860
# 90807
# 103110
# 107950
# 115065
# 125422
# 132943
# 139152
# 155463
# 169186
# 185354
# 200102
# 218919
# 233560
# 242176
# 249337
# 256491
# 259904
# 264187
# 269906
# 275820
# 282561
# 298523
# 313049
# 329073
# 340710
#
# Disc length: 4747 seconds
#
#
# Revision: 0
# Processed by: cddbd v1.5.1PL0 Copyright (c) Steve Scherf et al.
# Submitted via: FreeRIP 2.90 
#
DISCID=f8128920
DTITLE=Tato e Nando - Ao Vivo Três Lagoas
DYEAR=2004
DGENRE=Country
TTITLE0=Desatino
TTITLE1=Pode Chorar
TTITLE2=Aham
TTITLE3=Poko Rico
TTITLE4=Pagode em Brasília
TTITLE5=Louca Paixão
TTITLE6=Tentei te Esquecer
TTITLE7=Mercedita
TTITLE8=Moreninha Linda
TTITLE9=Rádio
TTITLE10=Luz da Minha Vida
TTITLE11=Essa é a Última Vez
TTITLE12=Vestido de Seda
TTITLE13=Prá lá de Bagdá
TTITLE14=Eu sem Você
TTITLE15=Corpo e Alma
TTITLE16=Dois Amigos Inseparáveis
TTITLE17=Diz pra Mim
TTITLE18=Ai Ai Ai
TTITLE19=Mapa da Mina
TTITLE20=Às Vezes
TTITLE21=Angústia e Solidão
TTITLE22=Amor de Momento
TTITLE23=Egoísta
TTITLE24=Vida Minha
TTITLE25=Rei do Gado
TTITLE26=Que Pena
TTITLE27=E Agora
TTITLE28=Você Mentiu
TTITLE29=Caso de Amor
TTITLE30=Deixa
TTITLE31=Eu Tava Só
EXTD=xiki no úrtimo
EXTT0=
EXTT1=
EXTT2=
EXTT3=
EXTT4=
EXTT5=
EXTT6=
EXTT7=
EXTT8=
EXTT9=
EXTT10=
EXTT11=
EXTT12=
EXTT13=
EXTT14=
EXTT15=
EXTT16=
EXTT17=
EXTT18=
EXTT19=
EXTT20=
EXTT21=
EXTT22=
EXTT23=
EXTT24=
EXTT25=
EXTT26=
EXTT27=
EXTT28=
EXTT29=
EXTT30=
EXTT31=
PLAYORDER=
